<mxfile host="app.diagrams.net" agent="Mozilla/5.0 (Windows NT 10.0; Win64; x64) AppleWebKit/537.36 (KHTML, like Gecko) Chrome/130.0.0.0 Safari/537.36" version="24.8.6">
  <diagram name="Page-1" id="wY2lOubU4o5MWgk515Wk">
    <mxGraphModel dx="2284" dy="738" grid="1" gridSize="10" guides="1" tooltips="1" connect="1" arrows="1" fold="1" page="1" pageScale="1" pageWidth="850" pageHeight="1100" math="0" shadow="0">
      <root>
        <mxCell id="0" />
        <mxCell id="1" parent="0" />
        <mxCell id="gQcjmKEbo1TeO9A9Aec3-22" style="edgeStyle=none;shape=link;rounded=0;orthogonalLoop=1;jettySize=auto;html=1;exitX=0.5;exitY=1;exitDx=0;exitDy=0;strokeColor=default;align=center;verticalAlign=middle;fontFamily=Helvetica;fontSize=11;fontColor=default;labelBackgroundColor=default;endArrow=none;endFill=0;" parent="1" source="gQcjmKEbo1TeO9A9Aec3-2" target="gQcjmKEbo1TeO9A9Aec3-21" edge="1">
          <mxGeometry relative="1" as="geometry" />
        </mxCell>
        <mxCell id="gQcjmKEbo1TeO9A9Aec3-25" value="1" style="edgeLabel;html=1;align=center;verticalAlign=middle;resizable=0;points=[];fontFamily=Helvetica;fontSize=11;fontColor=default;labelBackgroundColor=default;" parent="gQcjmKEbo1TeO9A9Aec3-22" vertex="1" connectable="0">
          <mxGeometry x="0.6306" y="5" relative="1" as="geometry">
            <mxPoint x="12" y="8" as="offset" />
          </mxGeometry>
        </mxCell>
        <mxCell id="gQcjmKEbo1TeO9A9Aec3-2" value="Muzej" style="whiteSpace=wrap;html=1;align=center;" parent="1" vertex="1">
          <mxGeometry x="370" y="150" width="100" height="40" as="geometry" />
        </mxCell>
        <mxCell id="gQcjmKEbo1TeO9A9Aec3-4" style="rounded=0;orthogonalLoop=1;jettySize=auto;html=1;exitX=0.5;exitY=1;exitDx=0;exitDy=0;endArrow=none;endFill=0;" parent="1" source="gQcjmKEbo1TeO9A9Aec3-3" target="gQcjmKEbo1TeO9A9Aec3-2" edge="1">
          <mxGeometry relative="1" as="geometry" />
        </mxCell>
        <mxCell id="gQcjmKEbo1TeO9A9Aec3-3" value="Ime" style="ellipse;whiteSpace=wrap;html=1;align=center;" parent="1" vertex="1">
          <mxGeometry x="290" y="80" width="100" height="40" as="geometry" />
        </mxCell>
        <mxCell id="gQcjmKEbo1TeO9A9Aec3-6" style="edgeStyle=none;shape=connector;rounded=0;orthogonalLoop=1;jettySize=auto;html=1;exitX=0;exitY=1;exitDx=0;exitDy=0;strokeColor=default;align=center;verticalAlign=middle;fontFamily=Helvetica;fontSize=11;fontColor=default;labelBackgroundColor=default;endArrow=none;endFill=0;" parent="1" source="gQcjmKEbo1TeO9A9Aec3-5" target="gQcjmKEbo1TeO9A9Aec3-2" edge="1">
          <mxGeometry relative="1" as="geometry" />
        </mxCell>
        <mxCell id="gQcjmKEbo1TeO9A9Aec3-34" style="edgeStyle=none;shape=connector;rounded=0;orthogonalLoop=1;jettySize=auto;html=1;exitX=0.5;exitY=1;exitDx=0;exitDy=0;strokeColor=default;align=center;verticalAlign=middle;fontFamily=Helvetica;fontSize=11;fontColor=default;labelBackgroundColor=default;endArrow=none;endFill=0;" parent="1" source="gQcjmKEbo1TeO9A9Aec3-5" target="gQcjmKEbo1TeO9A9Aec3-2" edge="1">
          <mxGeometry relative="1" as="geometry" />
        </mxCell>
        <mxCell id="gQcjmKEbo1TeO9A9Aec3-5" value="&lt;u&gt;shifra&lt;/u&gt;" style="ellipse;whiteSpace=wrap;html=1;align=center;" parent="1" vertex="1">
          <mxGeometry x="410" y="80" width="100" height="40" as="geometry" />
        </mxCell>
        <mxCell id="gQcjmKEbo1TeO9A9Aec3-35" style="edgeStyle=none;shape=connector;rounded=0;orthogonalLoop=1;jettySize=auto;html=1;exitX=0;exitY=1;exitDx=0;exitDy=0;entryX=1;entryY=0.25;entryDx=0;entryDy=0;strokeColor=default;align=center;verticalAlign=middle;fontFamily=Helvetica;fontSize=11;fontColor=default;labelBackgroundColor=default;endArrow=none;endFill=0;" parent="1" source="gQcjmKEbo1TeO9A9Aec3-7" target="gQcjmKEbo1TeO9A9Aec3-2" edge="1">
          <mxGeometry relative="1" as="geometry" />
        </mxCell>
        <mxCell id="gQcjmKEbo1TeO9A9Aec3-7" value="opis" style="ellipse;whiteSpace=wrap;html=1;align=center;" parent="1" vertex="1">
          <mxGeometry x="520" y="90" width="100" height="40" as="geometry" />
        </mxCell>
        <mxCell id="gQcjmKEbo1TeO9A9Aec3-33" style="edgeStyle=none;shape=connector;rounded=0;orthogonalLoop=1;jettySize=auto;html=1;exitX=1;exitY=0.5;exitDx=0;exitDy=0;entryX=0;entryY=0.25;entryDx=0;entryDy=0;strokeColor=default;align=center;verticalAlign=middle;fontFamily=Helvetica;fontSize=11;fontColor=default;labelBackgroundColor=default;endArrow=none;endFill=0;" parent="1" source="gQcjmKEbo1TeO9A9Aec3-8" target="gQcjmKEbo1TeO9A9Aec3-2" edge="1">
          <mxGeometry relative="1" as="geometry" />
        </mxCell>
        <mxCell id="gQcjmKEbo1TeO9A9Aec3-8" value="rabotnoVreme" style="ellipse;whiteSpace=wrap;html=1;align=center;" parent="1" vertex="1">
          <mxGeometry x="170" y="90" width="100" height="40" as="geometry" />
        </mxCell>
        <mxCell id="gQcjmKEbo1TeO9A9Aec3-32" style="edgeStyle=none;shape=connector;rounded=0;orthogonalLoop=1;jettySize=auto;html=1;exitX=1;exitY=0.5;exitDx=0;exitDy=0;entryX=0;entryY=0.5;entryDx=0;entryDy=0;strokeColor=default;align=center;verticalAlign=middle;fontFamily=Helvetica;fontSize=11;fontColor=default;labelBackgroundColor=default;endArrow=none;endFill=0;" parent="1" source="gQcjmKEbo1TeO9A9Aec3-9" target="gQcjmKEbo1TeO9A9Aec3-2" edge="1">
          <mxGeometry relative="1" as="geometry" />
        </mxCell>
        <mxCell id="gQcjmKEbo1TeO9A9Aec3-9" value="grad" style="ellipse;whiteSpace=wrap;html=1;align=center;" parent="1" vertex="1">
          <mxGeometry x="180" y="140" width="100" height="40" as="geometry" />
        </mxCell>
        <mxCell id="gQcjmKEbo1TeO9A9Aec3-36" style="edgeStyle=none;shape=connector;rounded=0;orthogonalLoop=1;jettySize=auto;html=1;exitX=0;exitY=0.5;exitDx=0;exitDy=0;entryX=1;entryY=0.75;entryDx=0;entryDy=0;strokeColor=default;align=center;verticalAlign=middle;fontFamily=Helvetica;fontSize=11;fontColor=default;labelBackgroundColor=default;endArrow=none;endFill=0;" parent="1" source="gQcjmKEbo1TeO9A9Aec3-10" target="gQcjmKEbo1TeO9A9Aec3-2" edge="1">
          <mxGeometry relative="1" as="geometry" />
        </mxCell>
        <mxCell id="gQcjmKEbo1TeO9A9Aec3-10" value="&lt;u&gt;tip&lt;/u&gt;" style="ellipse;whiteSpace=wrap;html=1;align=center;" parent="1" vertex="1">
          <mxGeometry x="530" y="140" width="100" height="40" as="geometry" />
        </mxCell>
        <mxCell id="gQcjmKEbo1TeO9A9Aec3-39" value="" style="edgeStyle=none;shape=connector;rounded=0;orthogonalLoop=1;jettySize=auto;html=1;strokeColor=default;align=center;verticalAlign=middle;fontFamily=Helvetica;fontSize=11;fontColor=default;labelBackgroundColor=default;endArrow=none;endFill=0;" parent="1" source="gQcjmKEbo1TeO9A9Aec3-11" target="gQcjmKEbo1TeO9A9Aec3-38" edge="1">
          <mxGeometry relative="1" as="geometry" />
        </mxCell>
        <mxCell id="gQcjmKEbo1TeO9A9Aec3-64" style="edgeStyle=none;shape=connector;rounded=0;orthogonalLoop=1;jettySize=auto;html=1;entryX=1;entryY=0.5;entryDx=0;entryDy=0;strokeColor=default;align=center;verticalAlign=middle;fontFamily=Helvetica;fontSize=11;fontColor=default;labelBackgroundColor=default;endArrow=none;endFill=0;" parent="1" source="gQcjmKEbo1TeO9A9Aec3-40" target="gQcjmKEbo1TeO9A9Aec3-62" edge="1">
          <mxGeometry relative="1" as="geometry">
            <mxPoint x="390" y="570" as="sourcePoint" />
          </mxGeometry>
        </mxCell>
        <mxCell id="gQcjmKEbo1TeO9A9Aec3-11" value="Izlozhba" style="whiteSpace=wrap;html=1;align=center;" parent="1" vertex="1">
          <mxGeometry x="470" y="420" width="100" height="40" as="geometry" />
        </mxCell>
        <mxCell id="gQcjmKEbo1TeO9A9Aec3-29" style="edgeStyle=none;shape=connector;rounded=0;orthogonalLoop=1;jettySize=auto;html=1;exitX=0;exitY=0.5;exitDx=0;exitDy=0;entryX=1;entryY=0;entryDx=0;entryDy=0;strokeColor=default;align=center;verticalAlign=middle;fontFamily=Helvetica;fontSize=11;fontColor=default;labelBackgroundColor=default;endArrow=none;endFill=0;" parent="1" source="gQcjmKEbo1TeO9A9Aec3-13" target="gQcjmKEbo1TeO9A9Aec3-11" edge="1">
          <mxGeometry relative="1" as="geometry" />
        </mxCell>
        <mxCell id="gQcjmKEbo1TeO9A9Aec3-13" value="&lt;u&gt;ime&lt;/u&gt;" style="ellipse;whiteSpace=wrap;html=1;align=center;" parent="1" vertex="1">
          <mxGeometry x="620" y="360" width="100" height="40" as="geometry" />
        </mxCell>
        <mxCell id="gQcjmKEbo1TeO9A9Aec3-16" value="opis" style="ellipse;whiteSpace=wrap;html=1;align=center;" parent="1" vertex="1">
          <mxGeometry x="590" y="320" width="100" height="40" as="geometry" />
        </mxCell>
        <mxCell id="gQcjmKEbo1TeO9A9Aec3-28" style="edgeStyle=none;shape=connector;rounded=0;orthogonalLoop=1;jettySize=auto;html=1;exitX=0;exitY=0.5;exitDx=0;exitDy=0;strokeColor=default;align=center;verticalAlign=middle;fontFamily=Helvetica;fontSize=11;fontColor=default;labelBackgroundColor=default;endArrow=none;endFill=0;" parent="1" source="gQcjmKEbo1TeO9A9Aec3-17" target="gQcjmKEbo1TeO9A9Aec3-11" edge="1">
          <mxGeometry relative="1" as="geometry" />
        </mxCell>
        <mxCell id="gQcjmKEbo1TeO9A9Aec3-17" value="sprat" style="ellipse;whiteSpace=wrap;html=1;align=center;" parent="1" vertex="1">
          <mxGeometry x="590" y="420" width="100" height="40" as="geometry" />
        </mxCell>
        <mxCell id="gQcjmKEbo1TeO9A9Aec3-27" style="edgeStyle=none;shape=connector;rounded=0;orthogonalLoop=1;jettySize=auto;html=1;exitX=0;exitY=0;exitDx=0;exitDy=0;entryX=1;entryY=0.25;entryDx=0;entryDy=0;strokeColor=default;align=center;verticalAlign=middle;fontFamily=Helvetica;fontSize=11;fontColor=default;labelBackgroundColor=default;endArrow=none;endFill=0;" parent="1" source="gQcjmKEbo1TeO9A9Aec3-18" target="gQcjmKEbo1TeO9A9Aec3-11" edge="1">
          <mxGeometry relative="1" as="geometry" />
        </mxCell>
        <mxCell id="gQcjmKEbo1TeO9A9Aec3-18" value="prostorija" style="ellipse;whiteSpace=wrap;html=1;align=center;" parent="1" vertex="1">
          <mxGeometry x="690" y="400" width="100" height="40" as="geometry" />
        </mxCell>
        <mxCell id="gQcjmKEbo1TeO9A9Aec3-31" style="edgeStyle=none;shape=connector;rounded=0;orthogonalLoop=1;jettySize=auto;html=1;exitX=0;exitY=1;exitDx=0;exitDy=0;strokeColor=default;align=center;verticalAlign=middle;fontFamily=Helvetica;fontSize=11;fontColor=default;labelBackgroundColor=default;endArrow=none;endFill=0;" parent="1" source="gQcjmKEbo1TeO9A9Aec3-19" target="gQcjmKEbo1TeO9A9Aec3-11" edge="1">
          <mxGeometry relative="1" as="geometry" />
        </mxCell>
        <mxCell id="gQcjmKEbo1TeO9A9Aec3-19" value="aktivnaOd" style="ellipse;whiteSpace=wrap;html=1;align=center;" parent="1" vertex="1">
          <mxGeometry x="490" y="300" width="100" height="40" as="geometry" />
        </mxCell>
        <mxCell id="gQcjmKEbo1TeO9A9Aec3-26" style="edgeStyle=none;shape=connector;rounded=0;orthogonalLoop=1;jettySize=auto;html=1;exitX=0.5;exitY=0;exitDx=0;exitDy=0;strokeColor=default;align=center;verticalAlign=middle;fontFamily=Helvetica;fontSize=11;fontColor=default;labelBackgroundColor=default;endArrow=none;endFill=0;entryX=1;entryY=1;entryDx=0;entryDy=0;" parent="1" source="gQcjmKEbo1TeO9A9Aec3-20" target="gQcjmKEbo1TeO9A9Aec3-11" edge="1">
          <mxGeometry relative="1" as="geometry" />
        </mxCell>
        <mxCell id="gQcjmKEbo1TeO9A9Aec3-20" value="aktivnaDo" style="ellipse;whiteSpace=wrap;html=1;align=center;" parent="1" vertex="1">
          <mxGeometry x="640" y="480" width="100" height="40" as="geometry" />
        </mxCell>
        <mxCell id="gQcjmKEbo1TeO9A9Aec3-23" style="edgeStyle=none;shape=link;rounded=0;orthogonalLoop=1;jettySize=auto;html=1;exitX=0.5;exitY=1;exitDx=0;exitDy=0;strokeColor=default;align=center;verticalAlign=middle;fontFamily=Helvetica;fontSize=11;fontColor=default;labelBackgroundColor=default;endArrow=none;endFill=0;" parent="1" source="gQcjmKEbo1TeO9A9Aec3-21" target="gQcjmKEbo1TeO9A9Aec3-11" edge="1">
          <mxGeometry relative="1" as="geometry" />
        </mxCell>
        <mxCell id="gQcjmKEbo1TeO9A9Aec3-21" value="ima" style="shape=rhombus;perimeter=rhombusPerimeter;whiteSpace=wrap;html=1;align=center;fontFamily=Helvetica;fontSize=11;fontColor=default;labelBackgroundColor=default;" parent="1" vertex="1">
          <mxGeometry x="365" y="290" width="120" height="60" as="geometry" />
        </mxCell>
        <mxCell id="gQcjmKEbo1TeO9A9Aec3-24" value="M" style="text;html=1;align=center;verticalAlign=middle;resizable=0;points=[];autosize=1;strokeColor=none;fillColor=none;fontFamily=Helvetica;fontSize=11;fontColor=default;labelBackgroundColor=default;" parent="1" vertex="1">
          <mxGeometry x="410" y="360" width="30" height="30" as="geometry" />
        </mxCell>
        <mxCell id="gQcjmKEbo1TeO9A9Aec3-30" style="edgeStyle=none;shape=connector;rounded=0;orthogonalLoop=1;jettySize=auto;html=1;exitX=0;exitY=0.5;exitDx=0;exitDy=0;entryX=0.87;entryY=0.1;entryDx=0;entryDy=0;entryPerimeter=0;strokeColor=default;align=center;verticalAlign=middle;fontFamily=Helvetica;fontSize=11;fontColor=default;labelBackgroundColor=default;endArrow=none;endFill=0;" parent="1" source="gQcjmKEbo1TeO9A9Aec3-16" target="gQcjmKEbo1TeO9A9Aec3-11" edge="1">
          <mxGeometry relative="1" as="geometry" />
        </mxCell>
        <mxCell id="gQcjmKEbo1TeO9A9Aec3-42" style="edgeStyle=none;shape=connector;rounded=0;orthogonalLoop=1;jettySize=auto;html=1;exitX=0;exitY=1;exitDx=0;exitDy=0;strokeColor=default;align=center;verticalAlign=middle;fontFamily=Helvetica;fontSize=11;fontColor=default;labelBackgroundColor=default;endArrow=none;endFill=0;" parent="1" source="gQcjmKEbo1TeO9A9Aec3-38" target="gQcjmKEbo1TeO9A9Aec3-40" edge="1">
          <mxGeometry relative="1" as="geometry" />
        </mxCell>
        <mxCell id="gQcjmKEbo1TeO9A9Aec3-38" value="d" style="ellipse;whiteSpace=wrap;html=1;" parent="1" vertex="1">
          <mxGeometry x="500" y="500" width="40" height="40" as="geometry" />
        </mxCell>
        <mxCell id="gQcjmKEbo1TeO9A9Aec3-40" value="Umetnichki_Izlozhbi" style="whiteSpace=wrap;html=1;align=center;" parent="1" vertex="1">
          <mxGeometry x="350" y="580" width="120" height="50" as="geometry" />
        </mxCell>
        <mxCell id="gQcjmKEbo1TeO9A9Aec3-41" value="Tehnoloshki_Izlozhbi" style="whiteSpace=wrap;html=1;align=center;" parent="1" vertex="1">
          <mxGeometry x="570" y="580" width="130" height="50" as="geometry" />
        </mxCell>
        <mxCell id="gQcjmKEbo1TeO9A9Aec3-43" style="edgeStyle=none;shape=connector;rounded=0;orthogonalLoop=1;jettySize=auto;html=1;exitX=1;exitY=1;exitDx=0;exitDy=0;entryX=0.338;entryY=0.06;entryDx=0;entryDy=0;entryPerimeter=0;strokeColor=default;align=center;verticalAlign=middle;fontFamily=Helvetica;fontSize=11;fontColor=default;labelBackgroundColor=default;endArrow=none;endFill=0;" parent="1" source="gQcjmKEbo1TeO9A9Aec3-38" target="gQcjmKEbo1TeO9A9Aec3-41" edge="1">
          <mxGeometry relative="1" as="geometry" />
        </mxCell>
        <mxCell id="gQcjmKEbo1TeO9A9Aec3-44" value="" style="shape=requiredInterface;html=1;verticalLabelPosition=bottom;sketch=0;fontFamily=Helvetica;fontSize=11;fontColor=default;labelBackgroundColor=default;rotation=125;" parent="1" vertex="1">
          <mxGeometry x="470" y="540" width="20" height="20" as="geometry" />
        </mxCell>
        <mxCell id="gQcjmKEbo1TeO9A9Aec3-48" value="" style="shape=requiredInterface;html=1;verticalLabelPosition=bottom;sketch=0;fontFamily=Helvetica;fontSize=11;fontColor=default;labelBackgroundColor=default;rotation=55;" parent="1" vertex="1">
          <mxGeometry x="550" y="540" width="20" height="20" as="geometry" />
        </mxCell>
        <mxCell id="gQcjmKEbo1TeO9A9Aec3-51" style="edgeStyle=none;shape=connector;rounded=0;orthogonalLoop=1;jettySize=auto;html=1;exitX=0;exitY=0.5;exitDx=0;exitDy=0;strokeColor=default;align=center;verticalAlign=middle;fontFamily=Helvetica;fontSize=11;fontColor=default;labelBackgroundColor=default;endArrow=none;endFill=0;" parent="1" source="gQcjmKEbo1TeO9A9Aec3-50" target="gQcjmKEbo1TeO9A9Aec3-41" edge="1">
          <mxGeometry relative="1" as="geometry" />
        </mxCell>
        <mxCell id="gQcjmKEbo1TeO9A9Aec3-50" value="Obejkti" style="ellipse;shape=doubleEllipse;margin=3;whiteSpace=wrap;html=1;align=center;fontFamily=Helvetica;fontSize=11;fontColor=default;labelBackgroundColor=default;" parent="1" vertex="1">
          <mxGeometry x="720" y="570" width="100" height="40" as="geometry" />
        </mxCell>
        <mxCell id="gQcjmKEbo1TeO9A9Aec3-63" style="edgeStyle=none;shape=link;rounded=0;orthogonalLoop=1;jettySize=auto;html=1;exitX=1;exitY=0.25;exitDx=0;exitDy=0;entryX=0;entryY=0.5;entryDx=0;entryDy=0;strokeColor=default;align=center;verticalAlign=middle;fontFamily=Helvetica;fontSize=11;fontColor=default;labelBackgroundColor=default;endArrow=none;endFill=0;" parent="1" source="gQcjmKEbo1TeO9A9Aec3-52" target="gQcjmKEbo1TeO9A9Aec3-62" edge="1">
          <mxGeometry relative="1" as="geometry" />
        </mxCell>
        <mxCell id="gQcjmKEbo1TeO9A9Aec3-52" value="UmetnichkoDelo" style="whiteSpace=wrap;html=1;align=center;" parent="1" vertex="1">
          <mxGeometry x="100" y="480" width="120" height="50" as="geometry" />
        </mxCell>
        <mxCell id="gQcjmKEbo1TeO9A9Aec3-59" style="edgeStyle=none;shape=connector;rounded=0;orthogonalLoop=1;jettySize=auto;html=1;exitX=1;exitY=0.5;exitDx=0;exitDy=0;strokeColor=default;align=center;verticalAlign=middle;fontFamily=Helvetica;fontSize=11;fontColor=default;labelBackgroundColor=default;endArrow=none;endFill=0;" parent="1" source="gQcjmKEbo1TeO9A9Aec3-54" target="gQcjmKEbo1TeO9A9Aec3-52" edge="1">
          <mxGeometry relative="1" as="geometry" />
        </mxCell>
        <mxCell id="gQcjmKEbo1TeO9A9Aec3-54" value="&lt;u&gt;shifra&lt;/u&gt;" style="ellipse;whiteSpace=wrap;html=1;align=center;" parent="1" vertex="1">
          <mxGeometry x="-20" y="500" width="100" height="40" as="geometry" />
        </mxCell>
        <mxCell id="gQcjmKEbo1TeO9A9Aec3-61" style="edgeStyle=none;shape=connector;rounded=0;orthogonalLoop=1;jettySize=auto;html=1;exitX=0.5;exitY=0;exitDx=0;exitDy=0;strokeColor=default;align=center;verticalAlign=middle;fontFamily=Helvetica;fontSize=11;fontColor=default;labelBackgroundColor=default;endArrow=none;endFill=0;" parent="1" source="gQcjmKEbo1TeO9A9Aec3-55" target="gQcjmKEbo1TeO9A9Aec3-52" edge="1">
          <mxGeometry relative="1" as="geometry" />
        </mxCell>
        <mxCell id="gQcjmKEbo1TeO9A9Aec3-55" value="ime" style="ellipse;whiteSpace=wrap;html=1;align=center;" parent="1" vertex="1">
          <mxGeometry x="150" y="585" width="100" height="40" as="geometry" />
        </mxCell>
        <mxCell id="gQcjmKEbo1TeO9A9Aec3-60" style="edgeStyle=none;shape=connector;rounded=0;orthogonalLoop=1;jettySize=auto;html=1;exitX=1;exitY=0;exitDx=0;exitDy=0;strokeColor=default;align=center;verticalAlign=middle;fontFamily=Helvetica;fontSize=11;fontColor=default;labelBackgroundColor=default;endArrow=none;endFill=0;" parent="1" source="gQcjmKEbo1TeO9A9Aec3-56" target="gQcjmKEbo1TeO9A9Aec3-52" edge="1">
          <mxGeometry relative="1" as="geometry" />
        </mxCell>
        <mxCell id="gQcjmKEbo1TeO9A9Aec3-56" value="umetnik" style="ellipse;whiteSpace=wrap;html=1;align=center;" parent="1" vertex="1">
          <mxGeometry x="30" y="560" width="100" height="40" as="geometry" />
        </mxCell>
        <mxCell id="gQcjmKEbo1TeO9A9Aec3-58" style="edgeStyle=none;shape=connector;rounded=0;orthogonalLoop=1;jettySize=auto;html=1;exitX=1;exitY=1;exitDx=0;exitDy=0;entryX=0.25;entryY=0;entryDx=0;entryDy=0;strokeColor=default;align=center;verticalAlign=middle;fontFamily=Helvetica;fontSize=11;fontColor=default;labelBackgroundColor=default;endArrow=none;endFill=0;" parent="1" source="gQcjmKEbo1TeO9A9Aec3-57" target="gQcjmKEbo1TeO9A9Aec3-52" edge="1">
          <mxGeometry relative="1" as="geometry" />
        </mxCell>
        <mxCell id="gQcjmKEbo1TeO9A9Aec3-57" value="godinaIzrabotka" style="ellipse;whiteSpace=wrap;html=1;align=center;" parent="1" vertex="1">
          <mxGeometry x="50" y="410" width="100" height="40" as="geometry" />
        </mxCell>
        <mxCell id="gQcjmKEbo1TeO9A9Aec3-62" value="izlozheno na" style="shape=rhombus;perimeter=rhombusPerimeter;whiteSpace=wrap;html=1;align=center;fontFamily=Helvetica;fontSize=11;fontColor=default;labelBackgroundColor=default;" parent="1" vertex="1">
          <mxGeometry x="270" y="430" width="120" height="60" as="geometry" />
        </mxCell>
        <mxCell id="gQcjmKEbo1TeO9A9Aec3-65" value="M" style="text;html=1;align=center;verticalAlign=middle;resizable=0;points=[];autosize=1;strokeColor=none;fillColor=none;fontFamily=Helvetica;fontSize=11;fontColor=default;labelBackgroundColor=default;" parent="1" vertex="1">
          <mxGeometry x="240" y="445" width="30" height="30" as="geometry" />
        </mxCell>
        <mxCell id="gQcjmKEbo1TeO9A9Aec3-66" value="N" style="text;html=1;align=center;verticalAlign=middle;resizable=0;points=[];autosize=1;strokeColor=none;fillColor=none;fontFamily=Helvetica;fontSize=11;fontColor=default;labelBackgroundColor=default;" parent="1" vertex="1">
          <mxGeometry x="360" y="470" width="30" height="30" as="geometry" />
        </mxCell>
        <mxCell id="gQcjmKEbo1TeO9A9Aec3-68" style="edgeStyle=none;shape=connector;rounded=0;orthogonalLoop=1;jettySize=auto;html=1;exitX=0.5;exitY=1;exitDx=0;exitDy=0;strokeColor=default;align=center;verticalAlign=middle;fontFamily=Helvetica;fontSize=11;fontColor=default;labelBackgroundColor=default;endArrow=none;endFill=0;entryX=0.5;entryY=0;entryDx=0;entryDy=0;" parent="1" source="gQcjmKEbo1TeO9A9Aec3-67" target="gQcjmKEbo1TeO9A9Aec3-62" edge="1">
          <mxGeometry relative="1" as="geometry">
            <mxPoint x="330" y="490" as="targetPoint" />
          </mxGeometry>
        </mxCell>
        <mxCell id="gQcjmKEbo1TeO9A9Aec3-67" value="datumNaIzlozhba" style="ellipse;whiteSpace=wrap;html=1;align=center;" parent="1" vertex="1">
          <mxGeometry x="220" y="340" width="100" height="40" as="geometry" />
        </mxCell>
        <mxCell id="gQcjmKEbo1TeO9A9Aec3-69" value="&lt;font style=&quot;font-size: 18px;&quot;&gt;Muzej(&lt;u&gt;Shifra&lt;/u&gt;,Ime,opis,tip,grad,rabotnoVreme)&lt;/font&gt;" style="text;html=1;align=center;verticalAlign=middle;resizable=0;points=[];autosize=1;strokeColor=none;fillColor=none;fontFamily=Helvetica;fontSize=11;fontColor=default;labelBackgroundColor=default;" parent="1" vertex="1">
          <mxGeometry x="-290" y="200" width="390" height="40" as="geometry" />
        </mxCell>
        <mxCell id="gQcjmKEbo1TeO9A9Aec3-71" value="&lt;span style=&quot;font-size: 18px;&quot;&gt;Izlozhba(&lt;u&gt;ime&lt;/u&gt;,opis,sprat, prostorija, aktivnaOd, aktivnaDo,MuzejShifra*)&lt;/span&gt;" style="text;html=1;align=center;verticalAlign=middle;resizable=0;points=[];autosize=1;strokeColor=none;fillColor=none;fontFamily=Helvetica;fontSize=11;fontColor=default;labelBackgroundColor=default;" parent="1" vertex="1">
          <mxGeometry x="-290" y="250" width="590" height="40" as="geometry" />
        </mxCell>
        <mxCell id="gQcjmKEbo1TeO9A9Aec3-72" value="&lt;span style=&quot;font-size: 18px;&quot;&gt;Umetnichki_izlozhbi(&lt;u&gt;Ime*&lt;/u&gt;)&lt;/span&gt;" style="text;html=1;align=center;verticalAlign=middle;resizable=0;points=[];autosize=1;strokeColor=none;fillColor=none;fontFamily=Helvetica;fontSize=11;fontColor=default;labelBackgroundColor=default;" parent="1" vertex="1">
          <mxGeometry x="-275" y="300" width="230" height="40" as="geometry" />
        </mxCell>
        <mxCell id="gQcjmKEbo1TeO9A9Aec3-74" value="&lt;span style=&quot;font-size: 18px;&quot;&gt;Tehnoloshki_izlozhbi(&lt;u&gt;Ime*&lt;/u&gt;)&lt;/span&gt;" style="text;html=1;align=center;verticalAlign=middle;resizable=0;points=[];autosize=1;strokeColor=none;fillColor=none;fontFamily=Helvetica;fontSize=11;fontColor=default;labelBackgroundColor=default;" parent="1" vertex="1">
          <mxGeometry x="-290" y="340" width="240" height="40" as="geometry" />
        </mxCell>
        <mxCell id="gQcjmKEbo1TeO9A9Aec3-76" value="&lt;span style=&quot;font-size: 18px;&quot;&gt;Objekti(&lt;u&gt;ImeObjekt,ImeIzlozhba*&lt;/u&gt;)&lt;/span&gt;" style="text;html=1;align=center;verticalAlign=middle;resizable=0;points=[];autosize=1;strokeColor=none;fillColor=none;fontFamily=Helvetica;fontSize=11;fontColor=default;labelBackgroundColor=default;" parent="1" vertex="1">
          <mxGeometry x="-300" y="380" width="280" height="40" as="geometry" />
        </mxCell>
        <mxCell id="gQcjmKEbo1TeO9A9Aec3-77" value="&lt;span style=&quot;font-size: 18px;&quot;&gt;UmetnichkoDelo(&lt;u&gt;Shifra&lt;/u&gt;,ime,umetnik.godinaIzrabotka)&lt;/span&gt;" style="text;html=1;align=center;verticalAlign=middle;resizable=0;points=[];autosize=1;strokeColor=none;fillColor=none;fontFamily=Helvetica;fontSize=11;fontColor=default;labelBackgroundColor=default;" parent="1" vertex="1">
          <mxGeometry x="-280" y="160" width="450" height="40" as="geometry" />
        </mxCell>
        <mxCell id="L4ibYGcJk-A0yVATO-xJ-1" value="&lt;span style=&quot;font-size: 18px;&quot;&gt;IzlozhenoNa(&lt;u&gt;UDShifra*,IzlozhbaIme*,datumNaIzlozhba&lt;/u&gt;)&lt;/span&gt;" style="text;html=1;align=center;verticalAlign=middle;resizable=0;points=[];autosize=1;strokeColor=none;fillColor=none;fontFamily=Helvetica;fontSize=11;fontColor=default;labelBackgroundColor=default;" vertex="1" parent="1">
          <mxGeometry x="-300" y="120" width="470" height="40" as="geometry" />
        </mxCell>
      </root>
    </mxGraphModel>
  </diagram>
</mxfile>
